<svg xmlns="http://www.w3.org/2000/svg" width="240" height="220" fill="none"><path fill="url(#a)" d="M219.623 38.254c-20.315-71.638-79.061 40.152-102.674-22.07-16.258-42.83-83.133 6.342-99.329 66.003-9.29 34.208 8.826 56.145 56.284 26.969 37.765-23.217 61.022-17.288 56.981 24.144-1.796 18.421 20.624 32.545 53.527 12.889 37.255-22.246 46.344-68.578 35.195-107.92z"/><path fill="#000" d="M0 193.079h7.897v2.045l.108.045c1.998-1.501 4.522-2.649 7.742-2.649 2.896 0 5.837 1.001 7.479 3.399 2.632-2.148 5.729-3.399 9.15-3.399 2.896 0 5.203.898 6.783 2.501 1.58 1.604 2.322 3.693 2.322 7.254v15.596h-8.005v-14.345c0-1.751-.263-2.649-.944-3.399-.682-.75-1.735-1.045-2.834-1.045-1.889 0-3.685.854-5.001 1.957.046.294.046.706.046 1.045v15.802h-8.005V203.54c0-1.706-.217-2.648-.944-3.398-.744-.751-1.735-1.045-2.896-1.045-1.796 0-3.623.897-4.893 1.957V217.9H0v-24.821M69.77 185.326c0-2.399 2.105-4.356 4.63-4.356 2.523 0 4.629 1.957 4.629 4.356s-2.106 4.355-4.63 4.355-4.63-1.957-4.63-4.355m.634 13.05h8.005v19.495h-8.005zM161.682 185.326c0-2.399 2.105-4.356 4.629-4.356s4.63 1.957 4.63 4.356-2.106 4.355-4.63 4.355-4.629-1.957-4.629-4.355m.634 13.05h8.006v19.495h-8.006zM115.634 204.982l-9.042-11.903h8.949l2.215 3.149a105 105 0 0 1 2.74 4.105h.109c.944-1.457 1.889-2.796 2.833-4.149l2.214-3.105h8.424l-9.043 11.844 9.832 12.948h-9.104l-2.679-3.796c-.944-1.354-2.059-2.943-2.942-4.296h-.108c-.836 1.353-1.951 2.942-2.896 4.296l-2.678 3.796h-8.517l9.74-12.904zM213.043 217.871v-.103l10.947-14.242c3.685-4.797 5.636-7.548 5.636-10.505 0-3.296-2.415-5.106-5.946-5.106-3.313 0-6.627 1.545-9.414 4.149v-7.15c2.369-2.104 6.256-3.796 10.731-3.796 7.478 0 12.789 4.443 12.789 11.152 0 4.752-2.632 8.651-6.627 13.551l-4.32 5.297.047.103h12.634v6.65h-26.477"/><defs><linearGradient id="a" x1="58.823" x2="194.838" y1="23.467" y2="141.073" gradientUnits="userSpaceOnUse"><stop stop-color="#FF79A1"/><stop offset="1" stop-color="#FF9A00"/></linearGradient></defs></svg>