<svg xmlns="http://www.w3.org/2000/svg" width="50" height="50"><path d="M46 9v32c0 2.757-2.243 5-5 5H9c-2.757 0-5-2.243-5-5V9c0-2.757 2.243-5 5-5h32c2.757 0 5 2.243 5 5M33.544 35.913c2.711-2.708 2.635-6.093 1.746-8.17-.54-1.255-1.508-2.33-2.798-3.108l-.223-.138a5.4 5.4 0 0 0-1.046-.542 8 8 0 0 0-.058-.807c-.59-4.561-3.551-5.535-5.938-5.55-2.154 0-3.946.92-5.044 2.592l1.672 1.098c.736-1.121 1.871-1.689 3.366-1.689 2.367.015 3.625 1.223 3.96 3.801-1.141-.231-2.426-.314-3.807-.233-3.924.226-5.561 2.591-5.442 4.836.134 2.486 2.278 4.222 5.216 4.222q.196 0 .384-.011c2.297-.126 5.105-1.29 5.61-6.063l.062.039.253.157c.932.562 1.621 1.317 1.994 2.185.643 1.501.682 3.964-1.322 5.966-1.732 1.73-3.812 2.479-6.936 2.502-3.47-.026-6.099-1.145-7.812-3.325-1.596-2.028-2.42-4.953-2.451-8.677.031-3.728.855-6.646 2.451-8.673 1.714-2.181 4.349-3.299 7.814-3.325 3.492.026 6.165 1.149 7.944 3.338.864 1.063 1.525 2.409 1.965 3.998l1.928-.532c-.514-1.858-1.301-3.449-2.341-4.728-2.174-2.674-5.363-4.045-9.496-4.076-4.12.031-7.278 1.406-9.387 4.089-1.875 2.383-2.844 5.712-2.879 9.91.035 4.193 1.004 7.529 2.879 9.913 2.109 2.682 5.262 4.058 9.385 4.088 3.664-.027 6.24-.979 8.351-3.087m-4.551-10.508.202.046q-.008.118-.015.198c-.314 3.928-2.295 4.489-3.761 4.569a5 5 0 0 1-.271.008c-1.851 0-3.144-.936-3.218-2.329-.065-1.218.836-2.576 3.561-2.732q.446-.027.875-.027c.959-.001 1.843.089 2.627.267"/></svg>